<svg xmlns="http://www.w3.org/2000/svg" width="512" height="512" viewBox="0 0 512 512"><path fill="currentColor" d="M256 48c-8.8 0-16 7.2-16 16v32h-48c-26.5 0-48 21.5-48 48v160c0 26.5 21.5 48 48 48h48v32c0 8.8 7.2 16 16 16s16-7.2 16-16v-32h48c26.5 0 48-21.5 48-48V144c0-26.5-21.5-48-48-48h-48V64c0-8.8-7.2-16-16-16zM144 304V144h224v160H144zm64-112c0-17.7 14.3-32 32-32s32 14.3 32 32-14.3 32-32 32-32-14.3-32-32zm-96-48h-32c-8.8 0-16-7.2-16-16s7.2-16 16-16h32c8.8 0 16 7.2 16 16s-7.2 16-16 16zm0 64h-32c-8.8 0-16-7.2-16-16s7.2-16 16-16h32c8.8 0 16 7.2 16 16s-7.2 16-16 16zm0 64h-32c-8.8 0-16-7.2-16-16s7.2-16 16-16h32c8.8 0 16 7.2 16 16s-7.2 16-16 16zm320-128h32c8.8 0 16 7.2 16 16s-7.2 16-16 16h-32c-8.8 0-16-7.2-16-16s7.2-16 16-16zm0 64h32c8.8 0 16 7.2 16 16s-7.2 16-16 16h-32c-8.8 0-16-7.2-16-16s7.2-16 16-16zm0 64h32c8.8 0 16 7.2 16 16s-7.2 16-16 16h-32c-8.8 0-16-7.2-16-16s7.2-16 16-16zM240 256v32h32v-32h-32z"/></svg>
