<svg xmlns="http://www.w3.org/2000/svg" width="512" height="512" viewBox="0 0 512 512"><path fill="currentColor" d="M256 32C149.6 32 64 75.6 64 128v256c0 52.4 85.6 96 192 96s192-43.6 192-96V128c0-52.4-85.6-96-192-96zm0 48c88.4 0 144 31.6 144 48s-55.6 48-144 48S112 144.4 112 128s55.6-48 144-48zM112 232v-56c28.8 19.6 79.2 32 144 32s115.2-12.4 144-32v56c0 16.4-55.6 48-144 48s-144-31.6-144-48zm0 96v-56c28.8 19.6 79.2 32 144 32s115.2-12.4 144-32v56c0 16.4-55.6 48-144 48s-144-31.6-144-48zm0 96v-56c28.8 19.6 79.2 32 144 32s115.2-12.4 144-32v56c0 16.4-55.6 48-144 48s-144-31.6-144-48z"/></svg>
