<svg xmlns="http://www.w3.org/2000/svg" width="512" height="512" viewBox="0 0 512 512"><path fill="currentColor" d="M32 128c0-26.5 21.5-48 48-48h352c26.5 0 48 21.5 48 48v192c0 26.5-21.5 48-48 48H288v32h64c8.8 0 16 7.2 16 16s-7.2 16-16 16H160c-8.8 0-16-7.2-16-16s7.2-16 16-16h64v-32H80c-26.5 0-48-21.5-48-48V128zm48 16v160h352V144H80zm304 256v-32h48c26.5 0 48-21.5 48-48v-96c0-26.5-21.5-48-48-48h-48v-32h48c44.2 0 80 35.8 80 80v96c0 44.2-35.8 80-80 80h-48zm-256-64c0 8.8-7.2 16-16 16s-16-7.2-16-16V208c0-8.8 7.2-16 16-16s16 7.2 16 16v128zm368-64c0 26.5-21.5 48-48 48H336c-26.5 0-48-21.5-48-48v-96c0-26.5 21.5-48 48-48h112c26.5 0 48 21.5 48 48v96zm-144-80v64h112v-64H352z"/></svg>
